IDResults
version=1
nRows=13
nColumns=40
inDegrees=yes

Units are S.I. units (second, meters, Newtons, ...)
If the header above contains a line with 'inDegrees', this indicates whether rotational values are in degrees (yes) or radians (no).

endheader
time	pelvis_tilt	pelvis_list	pelvis_rotation	pelvis_tx	pelvis_ty	pelvis_tz	hip_flexion_r	hip_adduction_r	hip_rotation_r	knee_angle_r	knee_angle_r_beta	ankle_angle_r	subtalar_angle_r	mtp_angle_r	hip_flexion_l	hip_adduction_l	hip_rotation_l	knee_angle_l	knee_angle_l_beta	ankle_angle_l	subtalar_angle_l	mtp_angle_l	lumbar_extension	lumbar_bending	lumbar_rotation	arm_flex_r	arm_add_r	arm_rot_r	elbow_flex_r	pro_sup_r	wrist_flex_r	wrist_dev_r	arm_flex_l	arm_add_l	arm_rot_l	elbow_flex_l	pro_sup_l	wrist_flex_l	wrist_dev_l
      2.07000000	     -3.34504125	      3.44227571	      9.94359953	     -0.11368625	      0.99242566	      0.24374118	     34.15351751	     -9.97151594	    -13.42429106	      4.68359974	      0.08174424	      0.14645056	     10.76225576	      0.00000000	    -12.24118440	      5.94708790	     18.74762964	     11.61892756	      0.20278854	     13.14538357	     -0.23925556	      0.00000000	    -13.59444096	     -1.60785946	    -12.82358370	    -20.93850672	    -10.71774421	      7.52150064	     38.78010313	     78.64692407	      0.00000000	      0.00000000	      0.31415118	    -16.95800249	     -4.31245961	     78.09123557	     68.22482945	      0.00000000	      0.00000000
      2.08000000	     -3.17223738	      3.22518486	     10.49921570	     -0.09833028	      0.98979952	      0.24396030	     34.25509544	    -10.06301051	    -14.25140681	      5.27120579	      0.09199990	      0.61406596	     10.77902999	      0.00000000	    -13.05190761	      5.33745668	     18.93840416	     12.20643481	      0.21304248	     13.63735798	      0.32066464	      0.00000000	    -13.61882206	     -1.10808266	    -13.23527259	    -20.80341222	    -10.73803303	      7.88400991	     38.46634295	     79.11390500	      0.00000000	      0.00000000	     -0.06084393	    -16.92474864	     -4.29601969	     77.84814224	     68.08548989	      0.00000000	      0.00000000
      2.09000000	     -2.98801130	      3.20534589	     10.75508663	     -0.08272978	      0.98730318	      0.24442612	     34.39883262	    -10.20052357	    -14.58150378	      6.19814738	      0.10817808	      0.52837546	     10.58876874	      0.00000000	    -13.90362371	      5.02269823	     18.92790652	     12.78792886	      0.22319146	     13.73119680	      0.48561598	      0.00000000	    -13.66311867	     -0.85033750	    -13.35090363	    -20.71888273	    -10.70118087	      7.91297373	     38.27119830	     79.23139082	      0.00000000	      0.00000000	     -0.40988291	    -16.65564706	     -4.51679898	     77.35984588	     68.01945027	      0.00000000	      0.00000000
      2.10000000	     -2.85547218	      3.04479829	     11.28041502	     -0.06666709	      0.98469500	      0.24461833	     34.60897426	    -10.39294770	    -15.13659930	      7.76444662	      0.13551516	      1.11833425	     10.00809184	      0.00000000	    -14.54759616	      4.48642380	     19.02212186	     13.64674612	      0.23818065	     14.04495162	      0.96757773	      0.00000000	    -13.55884749	     -0.41581191	    -13.80379836	    -20.62127544	    -10.69753976	      8.00327221	     38.07145306	     79.49192063	      0.00000000	      0.00000000	     -1.03003366	    -16.48287505	     -4.56629154	     76.93956458	     67.91042827	      0.00000000	      0.00000000
      2.11000000	     -3.01314311	      3.07362785	     11.80858691	     -0.05109370	      0.98178130	      0.24473403	     35.19096872	    -10.87039645	    -15.49065803	      9.67493312	      0.16885944	      1.30396848	      9.73550679	      0.00000000	    -14.65078245	      4.19381883	     18.65060144	     14.89304768	      0.25993272	     14.40480309	      2.18101137	      0.00000000	    -13.21540076	     -0.24233983	    -14.32408587	    -20.49480789	    -10.65502873	      7.93506636	     37.87151232	     80.30621975	      0.00000000	      0.00000000	     -1.64702910	    -16.32356610	     -4.72512626	     76.36450859	     67.68754078	      0.00000000	      0.00000000
      2.12000000	     -2.82140087	      2.91194663	     12.23260970	     -0.03442561	      0.97956902	      0.24515088	     35.27069979	    -10.99281740	    -15.68820803	     11.71778136	      0.20451387	      1.47532149	      9.16401051	      0.00000000	    -15.28819347	      3.63947297	     18.58364421	     15.83344701	      0.27634578	     14.27897510	      2.52706034	      0.00000000	    -13.12090687	      0.18443961	    -14.65081354	    -20.45454629	    -10.62021725	      7.76557572	     37.80913150	     80.41422872	      0.00000000	      0.00000000	     -2.24693956	    -16.10809473	     -4.84325913	     75.50380211	     67.73811014	      0.00000000	      0.00000000
      2.13000000	     -2.59517806	      2.75477365	     12.43524708	     -0.01789447	      0.97791184	      0.24602006	     35.24639792	    -10.95403891	    -15.72858153	     13.49736120	      0.23557339	      0.16831236	      9.05799887	      0.00000000	    -15.90566556	      3.14005918	     18.35452058	     16.77602388	      0.29279685	     13.73263136	      2.73189105	      0.00000000	    -13.09640642	      0.57941452	    -14.82070772	    -20.27971542	    -10.60254195	      7.62924778	     37.74615614	     80.43599473	      0.00000000	      0.00000000	     -2.86420581	    -15.85720445	     -4.95332603	     74.54061530	     67.72626701	      0.00000000	      0.00000000
      2.14000000	     -3.03635192	      2.55416067	     13.04578381	     -0.00167572	      0.97492106	      0.24637725	     36.03614676	    -11.08713844	    -15.61043398	     15.47356334	      0.27006463	     -1.09043722	      7.06086464	      0.00000000	    -15.28405697	      2.63378926	     17.82051807	     18.64847234	      0.32547724	     13.94273013	      3.98341457	      0.00000000	    -12.28929446	      0.92434640	    -15.36490949	    -20.29317077	    -10.48945269	      7.14390563	     37.75859088	     80.59705949	      0.00000000	      0.00000000	     -3.62110736	    -15.61677332	     -4.96061071	     73.39237599	     67.96003918	      0.00000000	      0.00000000
      2.15000000	     -3.28004670	      2.43536133	     13.19026109	      0.01486196	      0.97275020	      0.24766443	     36.35470423	    -10.85436246	    -15.13442911	     16.53334538	      0.28856131	     -3.62118807	      5.60176711	      0.00000000	    -14.97427905	      2.17222406	     16.67675839	     20.25900824	      0.35358640	     13.57905445	      5.41461879	      0.00000000	    -11.73477213	      1.12443476	    -15.48250519	    -20.18416415	    -10.40142678	      6.79704689	     37.70998432	     80.86194473	      0.00000000	      0.00000000	     -4.37889465	    -15.33300737	     -5.04830288	     72.16679111	     68.20365067	      0.00000000	      0.00000000
      2.16000000	     -3.36557618	      2.18584452	     13.43758694	      0.03166562	      0.97119938	      0.24895945	     36.29108393	    -10.52175901	    -14.96242254	     17.34981890	      0.30281146	     -6.18477410	      4.48307220	      0.00000000	    -14.73610546	      1.54328394	     15.85767903	     21.92871059	      0.38272820	     12.81095586	      6.25745106	      0.00000000	    -11.30170962	      1.51435222	    -15.64203442	    -20.06274144	    -10.30457617	      6.44958270	     37.70421120	     80.87444259	      0.00000000	      0.00000000	     -4.98960651	    -15.05301065	     -5.06576943	     70.61039745	     68.56833478	      0.00000000	      0.00000000
      2.17000000	     -3.12922893	      2.08674157	     13.56362491	      0.04898974	      0.97075745	      0.25017260	     35.86321885	    -10.33670370	    -14.80653326	     18.50767111	      0.32301980	     -7.61322452	      4.40442913	      0.00000000	    -14.99967801	      1.06209614	     15.23554669	     23.27951242	      0.40630414	     11.27408564	      6.55662148	      0.00000000	    -11.24802489	      1.82706128	    -15.76595252	    -19.83527886	    -10.29323817	      6.33465831	     37.70140903	     80.84350370	      0.00000000	      0.00000000	     -5.66709277	    -14.71034872	     -5.13689254	     69.08756847	     68.57560373	      0.00000000	      0.00000000
      2.18000000	     -3.46582803	      1.53276387	     13.68118128	      0.06564259	      0.96963619	      0.25194657	     36.26027671	     -9.68435695	    -14.44072872	     19.83567728	      0.34619788	     -9.24219907	      2.39020481	      0.00000000	    -13.89511259	      0.12615199	     13.70385337	     25.69528375	      0.44846730	     10.28446182	      7.92225834	      0.00000000	    -10.47355756	      2.46190814	    -15.64582277	    -19.68409531	    -10.23434164	      5.93220578	     37.65938867	     80.62253665	      0.00000000	      0.00000000	     -6.14124477	    -14.31960466	     -4.87539225	     66.96319251	     69.21008765	      0.00000000	      0.00000000
      2.19000000	     -3.09166267	      1.33925701	     13.63275717	      0.08297513	      0.97056771	      0.25339748	     35.85114630	     -9.38539351	    -14.45140228	     21.53589696	      0.37587231	     -9.65984253	      1.97104973	      0.00000000	    -13.88099691	     -0.49079898	     12.48396328	     27.50623004	      0.48007428	      8.05081086	      8.24647595	      0.00000000	    -10.57561766	      2.90094507	    -15.56878839	    -19.29978574	    -10.28667829	      5.85923814	     37.61437713	     80.56096599	      0.00000000	      0.00000000	     -6.68585240	    -13.78312549	     -5.03438133	     65.03015561	     69.31112155	      0.00000000	      0.00000000
